<?xml version="1.0" standalone="no"?>
<!DOCTYPE svg PUBLIC "-//W3C//DTD SVG 20010904//EN"
 "http://www.w3.org/TR/2001/REC-SVG-20010904/DTD/svg10.dtd">
<svg version="1.0" xmlns="http://www.w3.org/2000/svg"
 width="165.000000pt" height="165.000000pt" viewBox="0 0 165.000000 165.000000"
 preserveAspectRatio="xMidYMid meet">
<metadata>
Created by potrace 1.11, written by Peter Selinger 2001-2013
</metadata>
<g transform="translate(0.000000,165.000000) scale(0.100000,-0.100000)"
fill="#000000" stroke="none">
<path d="M631 1550 c-90 -55 -166 -100 -170 -102 -3 -2 -81 -48 -174 -103
l-167 -99 0 -423 0 -423 23 -14 c12 -8 170 -98 351 -201 l328 -186 157 99 c86
55 230 147 321 204 91 58 175 110 188 117 l22 12 -2 411 -3 412 -81 47 c-45
26 -106 60 -135 76 -63 35 -78 44 -299 168 -91 52 -172 96 -180 99 -8 2 -89
-40 -179 -94z"/>
</g>
</svg>
